<svg id="Layer_1" enable-background="new 0 0 512 512" height="512" viewBox="0 0 512 512" width="512" xmlns="http://www.w3.org/2000/svg"><path d="m415.967 104.91h-40.483v-68.91c0-3.866-3.134-7-7-7h-233.509c-25.3 0-45.894 20.11-45.94 44.9v.03 364.142c0 24.773 20.61 44.928 45.942 44.928h280.99c3.866 0 7-3.134 7-7v-364.09c0-3.866-3.134-7-7-7zm-280.992-61.91h226.509v61.91h-226.509c-15.133 0-27.832-10.246-31.112-23.982h145.837c3.866 0 7-3.134 7-7s-3.134-7-7-7h-145.832c3.286-13.692 15.981-23.928 31.107-23.928zm273.992 426h-273.992c-17.613 0-31.942-13.875-31.942-30.928v-331.827c8.63 8.16 20.065 12.694 31.942 12.665h273.992z"/><path d="m315.056 368.4h-118.112c-3.866 0-7 3.134-7 7s3.134 7 7 7h118.112c3.866 0 7-3.134 7-7s-3.134-7-7-7z"/><path d="m315.056 409.128h-76.843c-3.866 0-7 3.134-7 7s3.134 7 7 7h76.843c3.866 0 7-3.134 7-7s-3.134-7-7-7z"/><path d="m205.911 409.128h-8.967c-3.866 0-7 3.134-7 7s3.134 7 7 7h8.967c3.866 0 7-3.134 7-7s-3.134-7-7-7z"/><path d="m177.145 284.566c13.302 43.535 59.377 68.043 102.912 54.741 26.204-8.007 46.716-28.511 54.732-54.712 13.303-5.192 19.879-20.185 14.687-33.488-2.628-6.733-7.954-12.059-14.687-14.687-3.932-12.879-10.972-24.593-20.5-34.108 0-.159.012-.318.012-.478-.005-3.624-.818-7.202-2.379-10.473 4.415-9.295 2.519-20.36-4.737-27.656-9.484-9.483-24.861-9.483-34.345 0l-6 6c-6.826-3.416-14.862-3.416-21.688 0l-6-6c-9.491-9.479-24.869-9.47-34.348.02-4.546 4.551-7.101 10.721-7.104 17.154.005 3.625.818 7.203 2.379 10.475-1.614 3.394-2.419 7.116-2.35 10.873-9.573 9.54-16.642 21.296-20.581 34.224-13.287 5.225-19.822 20.232-14.596 33.519 2.628 6.681 7.915 11.969 14.596 14.596zm99.897-105.191c-.011-.018-.02-.037-.029-.055l5.727-5.72c4.028-4.008 10.542-3.991 14.549.037 3.616 3.634 4.004 9.375.912 13.463-1.917 2.509-1.917 5.991 0 8.5 3.439 4.523 2.56 10.976-1.963 14.415-4.096 3.114-9.862 2.723-13.5-.915 0 0-5.707-5.762-5.696-5.779 1.083-1.878 3.295-6.301 3.208-12.321-.082-5.62-2.126-9.749-3.208-11.625zm-14.102 4.487h.006c2.095 1.924 3.281 4.642 3.268 7.486-.001.386-.024.771-.068 1.154-.64 5.607-5.705 9.633-11.312 8.992-5.159-.589-9.056-4.954-9.058-10.146 0-.36.019-.716.054-1.067.589-5.612 5.615-9.684 11.227-9.095 2.198.231 4.262 1.168 5.883 2.671zm-27.977 19.469-5.703 5.771c-4.028 4.008-10.542 3.991-14.549-.037-3.616-3.634-4.004-9.375-.912-13.463 1.917-2.509 1.917-5.991 0-8.5-3.116-4.096-2.724-9.864.918-13.5l-.002-.002c4.017-4.017 10.529-4.017 14.546 0l5.725 5.724c-.009.018-.018.037-.029.055-1.085 1.809-3.461 6.32-3.321 12.499.126 5.574 2.236 9.639 3.327 11.453zm-50.725 45.569c2.645-.532 4.749-2.537 5.408-5.154 2.461-9.77 7.062-18.872 13.472-26.646 8.416 10.427 23.691 12.057 34.118 3.64.671-.542 1.313-1.119 1.923-1.729l6-6c6.826 3.417 14.863 3.417 21.689 0l5.995 5.994c9.484 9.483 24.861 9.483 34.345 0 .592-.593 1.153-1.215 1.682-1.864 6.386 7.761 10.971 16.841 13.427 26.587.661 2.623 2.775 4.631 5.429 5.156 6.418 1.286 10.578 7.531 9.292 13.948-.939 4.688-4.604 8.352-9.292 9.292-2.654.525-4.768 2.533-5.429 5.157-9.276 36.629-46.489 58.803-83.118 49.527-24.353-6.167-43.368-25.185-49.53-49.539-.658-2.617-2.762-4.623-5.408-5.155-6.412-1.306-10.551-7.563-9.244-13.975.949-4.656 4.588-8.296 9.244-9.244z"/><path d="m210 264.176c3.866 0 7-3.134 7-7 .043-3.266 2.725-5.879 5.991-5.836 3.206.042 5.795 2.631 5.836 5.836 0 3.866 3.134 7 7 7s7-3.134 7-7c-.078-10.998-9.057-19.85-20.055-19.772-10.888.077-19.695 8.884-19.772 19.772 0 3.866 3.134 7 7 7z"/><path d="m276.177 264.176c3.866 0 7-3.134 7-7 .043-3.266 2.725-5.879 5.991-5.836 3.206.042 5.795 2.631 5.836 5.836 0 3.866 3.134 7 7 7s7-3.134 7-7c-.078-10.998-9.057-19.85-20.055-19.772-10.888.077-19.695 8.884-19.772 19.772 0 3.866 3.134 7 7 7z"/><path d="m231.607 275.14c-3.866 0-7 3.134-7 7 0 17.338 14.055 31.393 31.393 31.393s31.393-14.055 31.393-31.393c0-3.866-3.134-7-7-7s-7 3.134-7 7c-.005 9.606-7.796 17.389-17.402 17.384-9.599-.005-17.379-7.785-17.384-17.384 0-3.866-3.134-7-7-7z"/><path d="m334.234 80.928h3.158c3.866 0 7-3.134 7-7s-3.134-7-7-7h-3.158c-3.866 0-7 3.134-7 7s3.134 7 7 7z"/><path d="m273 80.928h38.634c3.866 0 7-3.134 7-7s-3.134-7-7-7h-38.634c-3.866 0-7 3.134-7 7s3.134 7 7 7z"/></svg>