<svg id="Layer_1" height="512" viewBox="0 0 512 512" width="512" xmlns="http://www.w3.org/2000/svg" data-name="Layer 1"><path d="m80.374 329.7a183.187 183.187 0 0 0 62.74 94.323 182.2 182.2 0 0 0 225.617.011 183.2 183.2 0 0 0 62.749-94.284 50.8 50.8 0 0 0 0-97.507 181.44 181.44 0 0 0 -49.544-82.754c.159-1.585.243-3.185.243-4.8a47.414 47.414 0 0 0 -6.768-24.336 47.325 47.325 0 0 0 -7.052-57.693 47.159 47.159 0 0 0 -66.69 0l-19 19a46.99 46.99 0 0 0 -53.349 0l-18.995-19a47.165 47.165 0 0 0 -80.505 33.35 47.405 47.405 0 0 0 6.768 24.337 47.112 47.112 0 0 0 -6.484 28.969 181.559 181.559 0 0 0 -49.732 82.977 50.793 50.793 0 0 0 0 97.406zm231.196-257.14a33.161 33.161 0 0 1 49.83 43.54 7 7 0 0 0 0 8.5 33.161 33.161 0 0 1 -49.828 43.54l-18.679-18.68.028-.037q.671-.853 1.3-1.737c.141-.2.275-.4.412-.6q.429-.619.838-1.25c.148-.23.293-.461.437-.693.257-.413.505-.83.748-1.251.131-.226.264-.451.391-.679q.42-.756.81-1.527c.073-.144.152-.284.223-.429q.486-.978.925-1.979c.089-.2.17-.405.255-.608.2-.478.4-.958.587-1.442.1-.254.191-.509.284-.764q.248-.677.474-1.361c.085-.256.17-.512.251-.77.157-.5.3-1.006.442-1.513.057-.207.12-.412.174-.62q.277-1.062.508-2.138c.032-.153.058-.309.089-.463.115-.573.223-1.148.317-1.726.041-.251.076-.5.113-.756.072-.493.138-.986.194-1.481.03-.266.059-.533.085-.8.05-.512.089-1.025.121-1.539.015-.236.034-.471.045-.707.036-.745.059-1.492.059-2.24s-.023-1.5-.059-2.242c-.011-.234-.03-.468-.045-.7-.032-.516-.071-1.031-.121-1.545-.025-.265-.054-.53-.085-.8-.056-.5-.122-.993-.194-1.488-.037-.249-.071-.5-.112-.747q-.144-.885-.324-1.761c-.028-.141-.052-.284-.081-.425q-.231-1.083-.512-2.154c-.05-.192-.108-.382-.161-.573q-.216-.786-.456-1.564c-.078-.246-.159-.49-.24-.735q-.233-.7-.489-1.4c-.089-.243-.177-.485-.27-.726-.194-.5-.4-1-.61-1.5-.078-.184-.151-.37-.232-.553q-.446-1.013-.936-2c-.058-.116-.121-.23-.18-.345q-.412-.814-.855-1.612c-.12-.215-.244-.426-.367-.639q-.376-.651-.773-1.293c-.138-.222-.278-.444-.419-.664-.278-.431-.565-.856-.857-1.279-.132-.192-.262-.385-.4-.575q-.627-.88-1.294-1.734l-.034-.045v-.007zm-33.133 23.6.006.005a33.067 33.067 0 0 1 10.557 24.186q0 .858-.045 1.711a33 33 0 0 1 -65.955-1.711q0-.859.045-1.712a32.993 32.993 0 0 1 55.392-22.479zm-124.9-23.6a33.159 33.159 0 0 1 46.89 0l18.679 18.68c-.461.585-.9 1.183-1.335 1.788-.131.183-.255.37-.383.555-.3.429-.589.861-.871 1.3-.14.216-.276.434-.412.652-.268.431-.527.867-.781 1.306-.121.209-.244.418-.361.629-.3.536-.585 1.078-.863 1.625-.056.111-.118.221-.173.333q-.494.993-.939 2.009c-.079.179-.151.361-.227.541-.213.5-.42 1.005-.616 1.513-.091.239-.179.48-.267.72q-.256.7-.491 1.409c-.081.244-.162.488-.239.733-.162.518-.312 1.039-.456 1.563-.053.192-.111.382-.162.575q-.28 1.071-.512 2.156c-.029.137-.051.275-.079.412-.119.589-.229 1.18-.326 1.774-.04.247-.074.5-.111.742-.073.5-.139.994-.195 1.494q-.047.394-.085.792c-.05.514-.089 1.029-.121 1.545-.015.235-.034.468-.045.7-.036.746-.059 1.493-.059 2.242s.023 1.5.059 2.24c.011.237.03.472.045.708.032.513.071 1.026.121 1.536.025.269.055.537.085.8.056.494.122.985.193 1.476.038.254.073.508.114.761.094.575.2 1.148.316 1.719.032.156.057.313.09.469q.228 1.074.507 2.134c.056.213.12.424.178.636.139.5.282 1 .437 1.492.082.265.169.528.257.791.148.446.3.891.464 1.332.1.265.193.528.294.791q.272.7.567 1.393c.092.219.179.44.275.657q.435.987.914 1.955c.085.173.179.342.267.513.247.483.5.962.762 1.436.137.247.281.491.423.736q.345.6.707 1.183.234.377.473.749c.255.4.518.785.785 1.172.153.223.3.448.461.668q.563.786 1.157 1.549c.054.07.1.142.158.21l-18.679 18.68a33.16 33.16 0 0 1 -49.827-43.534 7 7 0 0 0 0-8.5 33.147 33.147 0 0 1 2.938-43.54zm-66.073 172.385a7 7 0 0 0 5.407-5.153 167.4 167.4 0 0 1 41.5-74.951 47.138 47.138 0 0 0 75.961 13.2l18.995-19a46.987 46.987 0 0 0 53.35 0l19 19a47.219 47.219 0 0 0 75.951-13.077 167.306 167.306 0 0 1 41.367 74.8 7 7 0 0 0 5.429 5.157 36.795 36.795 0 0 1 0 72.162 7 7 0 0 0 -5.429 5.156 168.2 168.2 0 0 1 -326.124-.039 7 7 0 0 0 -5.407-5.154 36.787 36.787 0 0 1 0-72.1z"/><path d="m342.612 301.517a25.108 25.108 0 1 0 -25.112-25.108 25.137 25.137 0 0 0 25.112 25.108zm0-36.216a11.108 11.108 0 1 1 -11.112 11.108 11.121 11.121 0 0 1 11.112-11.109z"/><path d="m169.388 295.547a25.108 25.108 0 1 0 -25.109-25.108 25.137 25.137 0 0 0 25.109 25.108zm0-36.215a11.108 11.108 0 1 1 -11.109 11.107 11.12 11.12 0 0 1 11.109-11.107z"/><path d="m256 438a57 57 0 1 0 -57-57 57.064 57.064 0 0 0 57 57zm0-100a43 43 0 1 1 -43 43 43.049 43.049 0 0 1 43-43z"/><path d="m256 403a22 22 0 1 0 -22-22 22.025 22.025 0 0 0 22 22zm0-30a8 8 0 1 1 -8 8 8.009 8.009 0 0 1 8-8z"/></svg>