<svg id="Layer_1" height="512" viewBox="0 0 512 512" width="512" xmlns="http://www.w3.org/2000/svg" data-name="Layer 1"><path d="m484.529 254.816-186.641-125.3 1.288-1.918a16.332 16.332 0 0 0 -4.451-22.632l-23.188-15.566a16.328 16.328 0 0 0 -22.631 4.45l-3.723 5.55-5.831-3.916a37.883 37.883 0 0 0 -52.506 10.316l-10.886 16.22a8.427 8.427 0 0 1 -13.055 1.166c-6.652-6.89-12.622-13.455-17.756-19.527a37.861 37.861 0 1 0 -40.764 60.427c7.61 2.51 15.994 5.584 24.919 9.139a8.423 8.423 0 0 1 3.869 12.526l-10.855 16.169a37.837 37.837 0 0 0 10.325 52.507l5.83 3.914-3.724 5.547a16.312 16.312 0 0 0 4.451 22.632l23.188 15.568a16.322 16.322 0 0 0 22.631-4.451l1.287-1.918 186.642 125.3a25.434 25.434 0 0 0 14.226 4.356 25.822 25.822 0 0 0 5-.489 25.446 25.446 0 0 0 16.326-10.856l83.02-123.665a25.619 25.619 0 0 0 -6.991-35.549zm-344.084-12.016a23.84 23.84 0 0 1 -6.5-33.079l10.855-16.166a22.425 22.425 0 0 0 -10.313-33.337c-9.185-3.658-17.837-6.83-25.714-9.428a23.856 23.856 0 1 1 25.7-38.079c5.32 6.293 11.5 13.089 18.363 20.2a22.425 22.425 0 0 0 34.75-3.087l10.886-16.215a23.866 23.866 0 0 1 33.08-6.505l5.83 3.915-91.1 135.7zm29.745 47.66-23.19-15.56a2.309 2.309 0 0 1 -.63-3.2l114.159-170.048a2.31 2.31 0 0 1 3.2-.63l23.187 15.566a2.312 2.312 0 0 1 .631 3.2l-114.147 170.044a2.314 2.314 0 0 1 -3.21.631zm119.895-149.323 171.69 115.263c-7.5-.229-14-2.214-21.058-4.392-13.13-4.048-28.012-8.635-50.544-.581s-31.137 21.034-38.725 32.486c-7.305 11.026-13.616 20.55-31.765 27.036s-29.065 3.121-41.7-.776c-12.514-3.858-26.624-8.2-47.436-1.621l-36.438-24.452zm189.815 141.425-83.026 123.666a11.633 11.633 0 0 1 -16.123 3.169l-134.106-90.032c10.29-1.021 18.324 1.45 27.208 4.189 7.832 2.414 16.288 5.021 26.621 5.021a70.266 70.266 0 0 0 23.921-4.44c22.536-8.055 31.136-21.034 38.724-32.487 7.306-11.026 13.616-20.549 31.766-27.036s29.065-3.12 41.707.776c11.438 3.528 24.309 7.493 42.388 3.05a11.63 11.63 0 0 1 .92 14.124z"/><path d="m64.886 333.117h.031a49.27 49.27 0 0 0 42.562-24.855c8.128-14.208 8.187-30.861.155-44.546-.11-.187-.227-.367-.353-.542l-36.757-51.142a7 7 0 0 0 -11.369 0l-36.689 51.051a6.7 6.7 0 0 0 -.365.564c-8.021 13.781-7.921 30.5.265 44.726a49.257 49.257 0 0 0 42.52 24.744zm-30.845-62.151 30.8-42.855 30.874 42.957c5.386 9.385 5.249 20.39-.388 30.241a35.233 35.233 0 0 1 -30.419 17.808h-.021a35.226 35.226 0 0 1 -30.387-17.726c-5.684-9.879-5.846-20.95-.459-30.425z"/><path d="m59.634 308.034h.005a29.192 29.192 0 0 0 29.266-29.186 7 7 0 0 0 -7-7 7 7 0 0 0 -7 7 15.015 15.015 0 0 1 -4.447 10.724 15.255 15.255 0 0 1 -10.829 4.453 7 7 0 0 0 .005 14z"/></svg>