<?xml version="1.0"?>
<svg xmlns="http://www.w3.org/2000/svg" id="Layer_1" data-name="Layer 1" viewBox="0 0 512 512" width="512" height="512"><title>Diaper</title><path d="M482.743,79.955a17.019,17.019,0,0,0-17-17H46a17.019,17.019,0,0,0-17,17v198.41c0,94.114,76.567,170.68,170.68,170.68H312.063c94.114,0,170.68-76.566,170.68-170.68V243.158c.056-.2.107-.407.145-.617a6.955,6.955,0,0,0-.145-3.1Zm-14,101.393H337.351a26.827,26.827,0,1,1,0-53.654H468.743ZM43,127.694H174.393a26.827,26.827,0,0,1,0,53.654H43Zm0,150.671V247.447c3.456-.474,6.943-.806,10.429-.957A111.9,111.9,0,0,1,169.62,362.014a110.161,110.161,0,0,1-23.077,63.748C86.225,403.951,43,346.114,43,278.365Zm156.68,156.68a156.408,156.408,0,0,1-38.961-4.905,123.971,123.971,0,0,0,22.891-67.6A125.9,125.9,0,0,0,52.827,232.5c-3.281.141-6.564.423-9.827.82V195.348H174.393a40.827,40.827,0,0,0,0-81.654H43V79.955a3,3,0,0,1,3-3H465.743a3,3,0,0,1,3,3v33.739H337.351a40.827,40.827,0,1,0,0,81.654H468.743v37.815a127.01,127.01,0,0,0-14.015-.777A125.389,125.389,0,0,0,352.119,429.847a156.373,156.373,0,0,1-40.056,5.2Zm166.537-9.651a111.381,111.381,0,0,1,88.511-179.008,112.987,112.987,0,0,1,14.015.892v31.087C468.743,345.733,426,403.3,366.217,425.394Z"/><path d="M297.1,227.155,273.26,223.37l-11-22a7,7,0,0,0-12.522,0l-11,22L214.9,227.155a7,7,0,0,0-3.8,11.917L228.47,256.06l-4.148,23.76a7,7,0,0,0,10.155,7.4L256,275.892l21.523,11.327a7,7,0,0,0,10.155-7.4l-4.148-23.76L300.9,239.072a7,7,0,0,0-3.8-11.917Zm-25.993,21.474a7,7,0,0,0-2,6.208l2.333,13.358-12.177-6.408a7,7,0,0,0-6.52,0L240.563,268.2l2.333-13.358a7,7,0,0,0-2-6.208l-10.049-9.83,13.643-2.166a7,7,0,0,0,5.163-3.782l6.348-12.7,6.348,12.7a7,7,0,0,0,5.163,3.782l13.643,2.166Z"/></svg>
