<svg id="Layer_1" enable-background="new 0 0 512 512" height="512" viewBox="0 0 512 512" width="512" xmlns="http://www.w3.org/2000/svg"><path d="m476 209.2h-433v-115c0-26.5 21.5-48 48-48 26.2 0 47.5 21 48 47.1-16.8 2.2-31.6 12.1-40.2 26.8-1.9 3.3-.8 7.6 2.6 9.6 1.1.6 2.3.9 3.5.9h80.5c3.9 0 7-3.1 7-7 0-1.4-.4-2.8-1.2-3.9-9.8-14.5-23.7-23.9-38.2-26.2-.4-34.2-28.5-61.7-62.7-61.3-34 .3-61.3 28-61.3 62v378.6c0 3.9 3.1 7 7 7s7-3.1 7-7v-54.1h426v54.1c0 3.9 3.1 7 7 7s7-3.1 7-7v-256.6c0-3.9-3.1-7-7-7zm-356.3-92.6c7.3-6.3 16.7-9.7 26.3-9.7 9 0 17.3 4.2 23.8 9.7zm253.3 251.4v-108.2h41v108.2zm-55 0v-108.2h41v108.2zm-55 0v-108.2h41v108.2zm-55 0v-108.2h41v108.2zm-55 0v-108.2h41v108.2zm-55 0v-108.2h41v108.2zm-55 0v-108.2h41v108.2zm385-108.2h41v108.2h-41zm41-14h-426v-22.7h426zm-426 158.9v-22.7h426v22.7z"/><path d="m99 145.4c0 5.2 4.2 9.4 9.4 9.4s9.4-4.2 9.4-9.4-4.2-9.4-9.4-9.4c-5.2 0-9.4 4.2-9.4 9.4z"/><path d="m135.7 145.4c0 5.2 4.2 9.4 9.4 9.4s9.4-4.2 9.4-9.4-4.2-9.4-9.4-9.4c-5.2 0-9.4 4.2-9.4 9.4z"/><path d="m181.8 136c-5.2 0-9.4 4.2-9.4 9.4s4.2 9.4 9.4 9.4 9.4-4.2 9.4-9.4c0-5.2-4.2-9.4-9.4-9.4z"/></svg>